<svg width="1024px" height="1024px" viewBox="0 0 1024 1024" xmlns="http://www.w3.org/2000/svg">
    <defs>
        <linearGradient id="sunsetGradient" x1="0%" y1="0%" x2="100%" y2="100%">
            <stop offset="0%" style="stop-color:#FF6B6B"/>
            <stop offset="50%" style="stop-color:#FFB88C"/>
            <stop offset="100%" style="stop-color:#FFE66D"/>
        </linearGradient>
    </defs>
    <path fill="url(#sunsetGradient)" d="M854.6 288.7c6 6 9.4 14.1 9.4 22.6V928c0 17.7-14.3 32-32 32H192c-17.7 0-32-14.3-32-32V96c0-17.7 14.3-32 32-32h424.7c8.5 0 16.7 3.4 22.7 9.4l215.2 215.3zM790.2 326L602 137.8V326h188.2zM426.13 600.93l59.11 132.97a16 16 0 0 0 14.62 9.5h24.06a16 16 0 0 0 14.63-9.51l59.1-133.35V758a16 16 0 0 0 16.01 16H641a16 16 0 0 0 16-16V486a16 16 0 0 0-16-16h-34.75a16 16 0 0 0-14.67 9.62L512.1 662.2l-79.48-182.59a16 16 0 0 0-14.67-9.61H383a16 16 0 0 0-16 16v272a16 16 0 0 0 16 16h27.13a16 16 0 0 0 16-16V600.93z"/>
</svg>
