<svg xmlns="http://www.w3.org/2000/svg" enable-background="new 0 0 24 24" viewBox="0 0 24 24">
    <path fill="#6766DB" d="M11.991,21.043c-1.351-0.019,0.497-3.172-5.993-3.172H2.417C1.084,17.871,0,16.772,0,15.423V5.448C0,4.099,1.084,3,2.417,3h5.578c1.636,0,3.186,1.044,4.008,2.575C12.821,4.044,14.372,3,16.012,3h5.582C22.922,3.011,24,4.111,24,5.452v9.971c0,1.35-1.084,2.448-2.417,2.448c-3.086,0.334-7.887-1.113-8.983,2.724C12.472,21.065,11.891,21.078,11.991,21.043z M11.64,20.316c0,0.003-0.001,0.006-0.002,0.009C11.638,20.322,11.639,20.319,11.64,20.316z M12.355,20.298c0.002,0.008,0.004,0.015,0.006,0.022C12.359,20.313,12.357,20.306,12.355,20.298z"/>
    <path fill="#110638" d="M20.371 9.5h-5.745C14.275 9.5 14 9.203 14 8.824V7.676C14 7.297 14.275 7 14.625 7h5.749C20.725 7 21 7.297 21 7.676v1.148c0 .036-.004.071-.011.105C20.943 9.257 20.688 9.5 20.371 9.5zM15 8.5h5V8h-5V8.5zM20.371 12.5h-5.745C14.275 12.5 14 12.203 14 11.824v-1.148C14 10.297 14.275 10 14.625 10h5.749C20.725 10 21 10.297 21 10.676v1.148c0 .036-.004.071-.011.105C20.943 12.257 20.688 12.5 20.371 12.5zM15 11.5h5V11h-5V11.5zM20.371 15.5h-5.745C14.275 15.5 14 15.203 14 14.824v-1.148C14 13.297 14.275 13 14.625 13h5.749C20.725 13 21 13.297 21 13.676v1.148c0 .036-.004.071-.011.105C20.943 15.257 20.688 15.5 20.371 15.5zM15 14.5h5V14h-5V14.5zM9.371 9.5H3.625C3.275 9.5 3 9.203 3 8.824V7.676C3 7.297 3.275 7 3.625 7h5.749C9.725 7 10 7.297 10 7.676v1.148C10 8.86 9.996 8.896 9.989 8.93 9.943 9.257 9.688 9.5 9.371 9.5zM4 8.5h5V8H4V8.5zM9.371 12.5H3.625C3.275 12.5 3 12.203 3 11.824v-1.148C3 10.297 3.275 10 3.625 10h5.749C9.725 10 10 10.297 10 10.676v1.148c0 .036-.004.071-.011.105C9.943 12.257 9.688 12.5 9.371 12.5zM4 11.5h5V11H4V11.5zM9.371 15.5H3.625C3.275 15.5 3 15.203 3 14.824v-1.148C3 13.297 3.275 13 3.625 13h5.749C9.725 13 10 13.297 10 13.676v1.148c0 .036-.004.071-.011.105C9.943 15.257 9.688 15.5 9.371 15.5zM4 14.5h5V14H4V14.5z"/>
</svg>
